<?xml version="1.0" standalone="no"?>
<!DOCTYPE svg PUBLIC "-//W3C//DTD SVG 20010904//EN"
 "http://www.w3.org/TR/2001/REC-SVG-20010904/DTD/svg10.dtd">
<svg version="1.0" xmlns="http://www.w3.org/2000/svg"
 width="1920.000000pt" height="1071.000000pt" viewBox="0 0 1920.000000 1071.000000"
 preserveAspectRatio="xMidYMid meet">

<g transform="translate(0.000000,1071.000000) scale(0.100000,-0.100000)"
fill="#000000" stroke="none">
<path d="M10639 10245 c-72 -18 -145 -50 -239 -107 -41 -25 -176 -105 -300
-178 -124 -73 -245 -145 -270 -160 -25 -15 -146 -87 -270 -160 -124 -73 -245
-145 -270 -160 -25 -15 -124 -74 -220 -130 -96 -57 -218 -129 -270 -160 -52
-31 -174 -103 -270 -160 -96 -57 -218 -129 -270 -160 -52 -31 -133 -79 -180
-107 -365 -215 -541 -319 -580 -343 -25 -15 -146 -87 -270 -160 -124 -73 -245
-145 -270 -160 -25 -15 -146 -87 -270 -160 -124 -73 -245 -145 -270 -160 -109
-66 -489 -290 -528 -310 -81 -42 -188 -12 -230 63 -16 29 -17 97 -22 822 l-5
790 -28 57 c-31 64 -94 124 -165 160 l-47 23 -640 0 -640 0 -57 -23 c-81 -33
-160 -108 -200 -190 l-33 -67 -5 -1390 -5 -1390 -26 -55 c-14 -30 -38 -69 -53
-87 -15 -18 -105 -78 -199 -134 -95 -56 -192 -114 -217 -129 -25 -15 -124 -74
-220 -130 -366 -215 -618 -364 -690 -409 l-75 -46 -820 -5 c-775 -5 -822 -6
-855 -24 -49 -26 -98 -74 -123 -121 -21 -39 -22 -51 -25 -462 l-3 -423 -129 0
c-127 0 -129 0 -149 -26 -19 -24 -21 -40 -21 -185 l0 -159 150 0 150 0 0 -413
c0 -475 1 -479 80 -557 83 -84 34 -80 962 -80 l818 0 0 159 c0 141 -2 161 -19
182 l-19 24 -709 5 -708 5 -3 333 -2 332 480 0 c465 0 481 1 500 20 29 29 31
48 28 225 l-3 160 -503 3 -502 2 2 278 3 277 725 5 c722 5 725 5 773 27 47 22
73 37 427 253 102 62 205 125 230 140 25 15 128 78 230 140 102 62 205 125
230 140 25 15 151 91 280 170 129 79 255 155 280 170 25 15 128 78 230 140
102 62 205 125 230 140 25 15 128 78 230 140 102 62 205 125 230 140 45 27
299 181 745 453 127 77 250 152 275 167 25 15 128 78 230 140 102 62 205 125
230 140 25 15 151 91 280 170 129 79 307 187 395 240 88 54 243 148 345 210
102 62 205 125 230 140 25 15 128 78 230 140 574 350 596 361 798 368 214 8
293 -18 587 -193 110 -65 319 -189 465 -275 404 -240 1328 -787 1575 -933 121
-71 240 -142 265 -157 25 -15 146 -87 270 -160 124 -73 245 -145 270 -160 25
-15 146 -87 270 -160 124 -73 245 -145 270 -160 25 -15 144 -86 265 -157 121
-72 465 -276 765 -453 300 -177 644 -381 765 -453 121 -71 240 -142 265 -157
25 -15 146 -87 270 -160 397 -235 764 -452 810 -480 25 -15 144 -86 265 -157
121 -72 465 -276 765 -453 300 -177 644 -381 765 -453 388 -230 488 -289 561
-333 165 -99 267 -94 371 19 78 84 74 24 71 1178 l-3 1024 -23 73 c-45 148
-134 290 -233 373 -80 68 -109 86 -534 334 -214 125 -480 281 -590 345 -110
65 -321 188 -470 275 -148 87 -389 228 -535 313 -146 85 -356 208 -467 273
-469 275 -625 366 -938 549 -181 106 -448 262 -592 346 -145 85 -383 224 -530
310 -148 86 -358 209 -468 274 -110 64 -348 204 -530 310 -181 106 -420 246
-530 310 -241 141 -665 389 -944 552 -111 65 -221 128 -243 139 -106 54 -287
73 -409 44z"/>
<path d="M7753 7700 c-82 -17 -141 -63 -177 -140 -21 -45 -21 -53 -21 -830 l0
-785 1145 0 1145 0 40 21 c55 30 89 64 117 115 l23 44 3 793 2 792 -1117 -1
c-615 -1 -1137 -5 -1160 -9z m997 -324 l0 -214 -26 -31 -26 -31 -514 0 -514 0
0 193 c0 218 8 248 70 279 32 16 78 18 523 18 l487 0 0 -214z m1160 -6 l0
-221 -25 -24 -24 -25 -516 0 -516 0 3 221 3 221 28 24 28 24 510 0 509 0 0
-220z m-1160 -795 c0 -315 -3 -441 -12 -460 -25 -55 -25 -55 -568 -55 l-500 0
0 446 0 446 29 29 29 29 511 0 511 0 0 -435z m1160 10 c0 -470 0 -467 -63
-505 -31 -19 -54 -20 -524 -20 l-493 0 0 475 0 475 540 0 540 0 0 -425z"/>
<path d="M9320 4815 l0 -515 -128 0 c-178 0 -172 7 -172 -208 l0 -162 150 0
150 0 0 -486 0 -486 39 -39 39 -39 891 0 891 0 0 160 c0 157 -1 161 -25 185
l-24 25 -706 0 -705 0 0 335 0 335 480 0 c465 0 481 1 500 20 29 29 31 48 28
225 l-3 160 -502 3 -503 2 0 280 0 280 730 0 730 0 0 195 c0 195 0 196 -25
220 l-24 25 -906 0 -905 0 0 -515z"/>
<path d="M11886 5314 c-9 -8 -18 -25 -21 -37 -3 -12 -4 -560 -3 -1217 l3
-1195 175 -3 c202 -4 242 4 270 51 19 31 20 55 20 655 0 620 0 622 21 643 47
47 65 34 367 -269 l279 -279 284 283 c298 297 307 304 355 270 18 -14 19 -36
24 -683 l5 -668 175 -3 c202 -4 242 4 270 51 19 31 20 60 20 1195 0 857 -3
1169 -11 1185 -15 27 -28 37 -54 37 -13 0 -194 -174 -517 -497 l-498 -498 -55
0 -55 0 -497 498 c-352 351 -504 497 -520 497 -12 0 -29 -7 -37 -16z"/>
<path d="M3390 4641 l0 -629 -126 -4 c-170 -4 -164 4 -164 -214 l0 -164 145 0
145 0 0 -375 0 -375 200 0 200 0 0 376 0 375 298 -3 c340 -3 323 1 389 -96
185 -269 437 -629 447 -640 9 -9 68 -12 249 -10 l237 3 -179 260 c-99 143
-219 316 -266 385 -77 112 -86 128 -83 165 3 39 5 41 82 81 212 109 355 279
422 499 34 114 39 291 10 395 -68 247 -229 440 -450 540 -134 61 -120 60 -870
60 l-686 0 0 -629z m1366 219 c96 -46 166 -116 215 -215 37 -74 42 -93 47
-173 3 -55 0 -110 -8 -143 -26 -113 -107 -226 -207 -289 l-47 -30 -478 0 -478
0 0 440 0 440 446 0 446 0 64 -30z"/>
<path d="M6140 4075 l0 -1195 719 0 719 0 83 24 c373 108 681 398 814 766 88
245 93 527 14 771 -31 96 -110 255 -166 334 -125 175 -267 297 -463 396 -198
100 -192 99 -1022 99 l-698 0 0 -1195z m1345 780 c88 -23 212 -86 291 -149
130 -101 229 -249 276 -412 30 -105 33 -342 5 -444 -63 -226 -227 -423 -437
-524 l-85 -41 -472 -3 -473 -3 0 796 0 795 418 0 c344 0 428 -3 477 -15z"/>
<path d="M16390 2565 l0 -116 118 3 117 3 3 113 3 112 -121 0 -120 0 0 -115z"/>
<path d="M5810 1600 l0 -760 105 0 105 0 0 310 0 310 269 0 c203 0 289 4 352
16 247 47 379 200 380 440 0 209 -122 369 -316 413 -81 18 -331 31 -622 31
l-273 0 0 -760z m845 555 c81 -35 141 -115 152 -203 8 -68 -12 -160 -45 -207
-63 -90 -178 -115 -529 -115 l-213 0 0 276 0 276 298 -4 c252 -5 303 -8 337
-23z"/>
<path d="M7308 2355 c-5 -5 -8 -347 -8 -762 l0 -753 105 0 105 0 0 335 0 335
180 0 c178 0 181 0 243 -29 99 -45 178 -140 412 -494 l98 -147 129 0 c101 0
128 3 122 13 -27 45 -255 383 -292 432 -70 94 -142 163 -209 202 -34 20 -61
39 -59 41 2 2 33 9 68 17 207 44 329 149 364 315 35 168 -49 360 -187 431
-105 54 -160 60 -629 66 -239 3 -438 2 -442 -2z m820 -174 c88 -13 141 -42
186 -100 33 -45 38 -58 43 -123 5 -63 2 -80 -15 -113 -74 -139 -167 -165 -594
-165 l-238 0 0 255 0 255 278 0 c152 0 305 -4 340 -9z"/>
<path d="M8920 1600 l0 -760 595 0 595 0 0 85 0 85 -490 0 -490 0 0 265 0 265
440 0 440 0 0 85 0 85 -440 0 -440 0 0 235 0 235 470 0 470 0 0 90 0 90 -575
0 -575 0 0 -760z"/>
<path d="M10420 1600 l0 -760 100 0 100 0 0 345 0 345 375 0 375 0 0 85 0 85
-372 2 -373 3 -3 238 -2 237 435 0 435 0 0 90 0 90 -535 0 -535 0 0 -760z"/>
<path d="M12207 2348 c-6 -15 -597 -1476 -604 -1495 -4 -10 21 -13 104 -13
l110 0 58 153 c32 83 71 187 87 230 l30 77 333 0 c246 0 336 -3 341 -12 4 -6
47 -109 95 -227 l88 -216 115 -3 c64 -1 116 1 116 5 0 4 -146 346 -323 758
l-323 750 -111 3 c-83 2 -112 -1 -116 -10z m187 -353 c36 -99 97 -259 135
-355 l69 -175 -133 -3 c-74 -1 -196 -1 -273 0 l-139 3 89 225 c82 209 132 352
158 459 7 24 15 40 20 35 5 -5 38 -90 74 -189z"/>
<path d="M13258 2354 c-5 -4 -8 -346 -8 -761 l0 -753 368 0 c375 0 467 7 568
43 150 54 260 205 265 365 6 172 -69 293 -230 368 l-66 30 55 36 c68 43 105
86 138 158 36 77 35 184 -1 264 -56 121 -140 189 -283 227 -71 19 -116 22
-439 26 -198 3 -363 2 -367 -3z m765 -193 c49 -16 103 -64 129 -115 28 -54 28
-147 0 -201 -55 -109 -154 -134 -534 -135 l-158 0 0 236 0 236 263 -5 c166 -2
276 -8 300 -16z m-30 -632 c159 -25 235 -99 245 -241 4 -59 1 -75 -22 -122
-33 -66 -79 -107 -149 -131 -43 -15 -98 -19 -329 -23 l-278 -4 0 266 0 266
231 0 c126 0 263 -5 302 -11z"/>
<path d="M14760 1601 l0 -761 100 0 100 0 0 335 0 335 181 0 c215 0 249 -10
342 -99 61 -58 194 -239 332 -449 l80 -122 128 0 c70 0 127 2 127 5 0 3 -59
94 -132 203 -194 292 -268 378 -381 445 l-58 34 90 21 c198 46 312 147 351
310 37 160 -52 362 -190 432 -113 57 -164 62 -637 68 l-433 5 0 -762z m913
556 c144 -71 185 -235 90 -365 -27 -36 -84 -69 -153 -90 -31 -10 -136 -15
-347 -19 l-303 -5 0 257 0 257 328 -3 327 -4 58 -28z"/>
<path d="M16407 2353 c-4 -3 -7 -345 -7 -760 l0 -753 105 0 105 0 0 760 0 760
-98 0 c-54 0 -102 -3 -105 -7z"/>
<path d="M16980 1600 l0 -760 105 0 105 0 0 264 0 263 126 117 c69 64 129 116
134 116 5 0 133 -169 286 -376 153 -207 283 -378 289 -380 6 -3 68 -3 137 -2
l127 3 -345 445 c-189 245 -344 447 -344 450 0 3 149 142 332 310 l332 305
-132 3 c-73 1 -139 -1 -146 -5 -8 -4 -187 -173 -399 -375 -212 -203 -388 -368
-391 -368 -3 0 -7 168 -8 373 l-3 372 -102 3 -103 3 0 -761z"/>
<path d="M775 2001 c-157 -71 -168 -290 -18 -378 l48 -28 2105 -3 c1509 -2
2120 1 2158 9 113 23 192 148 163 254 -16 59 -45 101 -92 132 l-43 28 -2140 2
c-2054 3 -2143 2 -2181 -16z"/>
<path d="M820 1409 c-130 -26 -205 -165 -155 -287 23 -54 80 -108 129 -121 30
-9 608 -11 2172 -9 l2130 3 43 28 c138 91 126 290 -22 370 l-42 22 -2105 1
c-1189 1 -2125 -2 -2150 -7z"/>
</g>
</svg>
